<?xml version="1.0" encoding="UTF-8" standalone="no"?>
<svg
   xmlns:dc="http://purl.org/dc/elements/1.1/"
   xmlns:cc="http://creativecommons.org/ns#"
   xmlns:rdf="http://www.w3.org/1999/02/22-rdf-syntax-ns#"
   xmlns:svg="http://www.w3.org/2000/svg"
   xmlns="http://www.w3.org/2000/svg"
   xmlns:sodipodi="http://sodipodi.sourceforge.net/DTD/sodipodi-0.dtd"
   xmlns:inkscape="http://www.inkscape.org/namespaces/inkscape"
   inkscape:export-ydpi="96"
   inkscape:export-xdpi="96"
   inkscape:export-filename="/home/torakiki/repos/pdfsam/pdfsam-docs/graphics/basic.png"
   sodipodi:docname="pdfsam-visual.svg"
   inkscape:version="1.0rc1 (09960d6, 2020-04-09)"
   version="1.1"
   id="svg3863"
   height="512"
   width="512">
  <defs
     id="defs3865" />
  <sodipodi:namedview
     inkscape:document-rotation="0"
     inkscape:window-maximized="0"
     inkscape:window-y="593"
     inkscape:window-x="1983"
     inkscape:window-height="1199"
     inkscape:window-width="1463"
     showgrid="false"
     inkscape:current-layer="layer1"
     inkscape:document-units="px"
     inkscape:cy="313.65863"
     inkscape:cx="174.31326"
     inkscape:zoom="0.49497475"
     inkscape:pageshadow="2"
     inkscape:pageopacity="0.0"
     borderopacity="1.0"
     bordercolor="#666666"
     pagecolor="#ffffff"
     id="base" />
  <metadata
     id="metadata3868">
    <rdf:RDF>
      <cc:Work
         rdf:about="">
        <dc:format>image/svg+xml</dc:format>
        <dc:type
           rdf:resource="http://purl.org/dc/dcmitype/StillImage" />
        <dc:title />
      </cc:Work>
    </rdf:RDF>
  </metadata>
  <g
     transform="translate(0,-540.36218)"
     id="layer1"
     inkscape:groupmode="layer"
     inkscape:label="Livello 1">
    <circle
       r="76.266518"
       cy="383.32227"
       cx="-242.94168"
       transform="matrix(3.3566499,0,0,3.3566499,1071.4702,-490.31646)"
       id="path3827"
       style="fill:#ffffff;fill-opacity:1;stroke:none" />
    <g
       transform="matrix(7.8527983,0,0,-7.9003074,-1005.5886,474.5878)"
       id="g4193">
      <path
         inkscape:connector-curvature="0"
         d="m 160.67531,-13.00891 c -5.3,0 -10.253,-1.485 -14.467,-4.061 -0.074,-0.045 -0.146,-0.093 -0.22,-0.139 19.42,-5.238 25.018,-14.206 25.704,-22.763 0.397,-4.955 -2.568,-7.454 -2.568,-7.454 9.194,0.829 19.103,9.878 19.103,9.878 0.035,0.06 -0.035,-0.062 0,0 -1.709,13.729 -12.911,24.539 -27.552,24.539"
         style="fill:#1e92aa;fill-opacity:1;fill-rule:nonzero;stroke:none"
         id="path94-4-8" />
      <path
         inkscape:connector-curvature="0"
         d="m 136.54401,-54.83311 c 2.65,-4.59 6.412,-8.138 10.75,-10.498 0.076,-0.042 0.154,-0.08 0.23,-0.121 -5.173,19.436 -0.205,28.768 6.861,33.64 4.094,2.822 7.74,1.504 7.74,1.504 -5.314,7.548 -18.105,11.605 -18.105,11.605 -0.071,0 0.07,0 0,0 -11.037,-8.345 -14.796,-23.451 -7.476,-36.13"
         style="fill:#1e92aa;fill-opacity:1;fill-rule:nonzero;stroke:none"
         id="path98-6-4" />
      <path
         inkscape:connector-curvature="0"
         d="m 184.81791,-54.58311 c 2.65,4.589 3.841,9.621 3.716,14.559 -9.6e-4,0.087 -0.008,0.172 -0.01,0.259 -14.246,-14.198 -24.811,-14.562 -32.564,-10.878 -4.491,2.133 -5.172,5.951 -5.172,5.951 -3.88,-8.377 -0.998,-21.482 -0.998,-21.482 0.035,-0.061 -0.035,0.061 0,0 12.745,-5.386 27.708,-1.089 35.028,11.591"
         style="fill:#1e92aa;fill-opacity:1;fill-rule:nonzero;stroke:none"
         id="path102-4-9" />
      <path
         inkscape:connector-curvature="0"
         d="m 159.54914,-39.906671 c 0.49837,0.629266 1.41337,0.735013 2.04262,0.236656 0.63014,-0.498823 0.73547,-1.414693 0.23708,-2.043958 -0.49839,-0.629238 -1.41469,-0.735467 -2.0435,-0.236197 -0.62925,0.498376 -0.73501,1.413365 -0.2362,2.043499 m 2.27244,-7.725881 c 4.09481,-1.338849 5.65676,0.0325 5.65676,0.0325 -2.30416,2.224235 -2.83554,2.813838 -2.29608,4.51947 1.07584,3.413184 1.14335,4.891382 0.7289,6.643324 -0.99179,4.192418 -2.85079,4.886005 -2.85079,4.886005 -0.81408,-3.094718 -0.96031,-3.784767 -2.76849,-4.235029 -3.47326,-0.890785 -4.74843,-1.481241 -6.07856,-2.67738 -3.20338,-2.880685 -2.79998,-4.939389 -2.79998,-4.939389 3.06995,0.90301 3.82024,1.033899 5.03572,-0.256937 1.77409,-1.908829 3.67224,-3.416634 5.37252,-3.97256 z"
         style="fill:#f38e6f;fill-opacity:1;fill-rule:nonzero;stroke:none"
         id="path126-6-1-80"
         sodipodi:nodetypes="ccsccsccsccsccs"
         inkscape:transform-center-y="-2.5392263"
         inkscape:transform-center-x="2.9041324" />
    </g>
  </g>
</svg>
